<svg width="40" height="40" viewBox="0 0 40 40" fill="none" xmlns="http://www.w3.org/2000/svg">
<rect x="1" y="1" width="38" height="38" rx="9" stroke="#E9EAF0" stroke-width="2"/>
<g clip-path="url(#clip0_1462_272)">
<path d="M20.145 27.519C23.617 27.519 22.379 25.4056 22.647 24.7979C22.643 24.344 22.639 23.9075 22.655 23.6421C22.875 23.7017 23.394 23.9546 24.466 24.9565C26.121 26.5623 26.544 27.519 27.881 27.519H30.342C31.122 27.519 31.528 27.2084 31.731 26.9479C31.927 26.6959 32.119 26.2536 31.909 25.5652C31.36 23.9075 28.158 21.045 27.959 20.7431C27.989 20.6873 28.037 20.6133 28.062 20.5748H28.06C28.692 19.7719 31.104 16.2969 31.459 14.9065C31.46 14.9046 31.461 14.9017 31.461 14.8988C31.653 14.2642 31.477 13.8527 31.295 13.62C31.021 13.2719 30.585 13.0959 29.996 13.0959H27.535C26.711 13.0959 26.086 13.495 25.77 14.2229C25.241 15.5161 23.755 18.1758 22.641 19.1171C22.607 17.7834 22.63 16.7652 22.648 16.0084C22.684 14.5325 22.8 13.0959 21.207 13.0959H17.339C16.341 13.0959 15.386 14.144 16.42 15.3883C17.324 16.4786 16.745 17.0863 16.94 20.1113C16.18 19.3277 14.828 17.2113 13.872 14.5065C13.604 13.7748 13.198 13.0969 12.055 13.0969H9.594C8.596 13.0969 8 13.62 8 14.4959C8 16.4633 12.529 27.519 20.145 27.519ZM12.055 14.5392C12.272 14.5392 12.294 14.5392 12.455 14.9786C13.434 17.7508 15.63 21.8527 17.234 21.8527C18.439 21.8527 18.439 20.6652 18.439 20.2181L18.438 16.6584C18.372 15.4806 17.926 14.894 17.633 14.5383L21.141 14.5421C21.143 14.5584 21.121 18.4796 21.151 19.4296C21.151 20.7786 22.265 21.5517 24.004 19.8594C25.839 17.8681 27.108 14.8911 27.159 14.77C27.234 14.5969 27.299 14.5383 27.535 14.5383H29.996H30.006C30.005 14.5411 30.005 14.544 30.004 14.5469C29.779 15.5565 27.558 18.7738 26.815 19.7729C26.803 19.7883 26.792 19.8046 26.781 19.8209C26.454 20.3344 26.188 20.9017 26.826 21.6998H26.827C26.885 21.7671 27.036 21.9248 27.256 22.144C27.94 22.8229 30.286 25.144 30.494 26.0671C30.356 26.0883 30.206 26.0729 27.881 26.0777C27.386 26.0777 26.999 25.3661 25.522 23.9334C24.194 22.6911 23.332 22.1834 22.547 22.1834C21.023 22.1834 21.134 23.3729 21.148 24.8113C21.153 26.3709 21.143 25.8777 21.154 25.9758C21.065 26.0094 20.81 26.0767 20.145 26.0767C13.8 26.0767 9.668 16.3931 9.509 14.5421C9.564 14.5373 10.321 14.5402 12.055 14.5392Z" fill="#5F6B77"/>
</g>
<defs>
<clipPath id="clip0_1462_272">
<rect width="24" height="23.0769" fill="white" transform="translate(8 8.76904)"/>
</clipPath>
</defs>
</svg>
