<svg xmlns="http://www.w3.org/2000/svg" width="32" height="32" viewBox="0 0 32 32" fill="none">
  <path fill-rule="evenodd" clip-rule="evenodd" d="M16 8C16.2653 8 16.5196 8.10536 16.7072 8.29289C16.8947 8.48043 17 8.73478 17 9V20.586L21.292 16.292C21.385 16.199 21.4954 16.1253 21.6169 16.075C21.7384 16.0246 21.8686 15.9987 22 15.9987C22.1315 15.9987 22.2617 16.0246 22.3832 16.075C22.5047 16.1253 22.6151 16.199 22.708 16.292C22.801 16.385 22.8748 16.4954 22.9251 16.6168C22.9754 16.7383 23.0013 16.8685 23.0013 17C23.0013 17.1315 22.9754 17.2617 22.9251 17.3832C22.8748 17.5046 22.801 17.615 22.708 17.708L16.708 23.708C16.6152 23.8011 16.5048 23.875 16.3833 23.9254C16.2618 23.9758 16.1316 24.0018 16 24.0018C15.8685 24.0018 15.7383 23.9758 15.6168 23.9254C15.4953 23.875 15.3849 23.8011 15.292 23.708L9.29204 17.708C9.19907 17.615 9.12531 17.5046 9.075 17.3832C9.02468 17.2617 8.99878 17.1315 8.99878 17C8.99878 16.8685 9.02468 16.7383 9.075 16.6168C9.12531 16.4954 9.19907 16.385 9.29204 16.292C9.47982 16.1042 9.73449 15.9987 10 15.9987C10.1315 15.9987 10.2617 16.0246 10.3832 16.075C10.5047 16.1253 10.6151 16.199 10.708 16.292L15 20.586V9C15 8.73478 15.1054 8.48043 15.2929 8.29289C15.4805 8.10536 15.7348 8 16 8Z" fill="#5F6B77"/>
</svg>